<mxfile host="app.diagrams.net" agent="Mozilla/5.0 (Windows NT 10.0; Win64; x64) AppleWebKit/537.36 (KHTML, like Gecko) Chrome/137.0.0.0 Safari/537.36" version="27.0.9">
  <diagram name="Page-1" id="Ko9upTcb7BHZ2_TCfsMc">
    <mxGraphModel dx="2329" dy="1044" grid="1" gridSize="10" guides="1" tooltips="1" connect="1" arrows="1" fold="1" page="1" pageScale="1" pageWidth="827" pageHeight="1169" math="0" shadow="0">
      <root>
        <mxCell id="0" />
        <mxCell id="1" parent="0" />
        <mxCell id="KHWw7N-JnxVhbMhuoznx-1" value="ID" style="ellipse;whiteSpace=wrap;html=1;align=center;fontStyle=4;" vertex="1" parent="1">
          <mxGeometry x="170" y="380" width="100" height="40" as="geometry" />
        </mxCell>
        <mxCell id="KHWw7N-JnxVhbMhuoznx-2" value="Users" style="whiteSpace=wrap;html=1;align=center;" vertex="1" parent="1">
          <mxGeometry x="357" y="360" width="100" height="40" as="geometry" />
        </mxCell>
        <mxCell id="KHWw7N-JnxVhbMhuoznx-3" value="Username" style="ellipse;whiteSpace=wrap;html=1;align=center;" vertex="1" parent="1">
          <mxGeometry x="257" y="260" width="100" height="40" as="geometry" />
        </mxCell>
        <mxCell id="KHWw7N-JnxVhbMhuoznx-4" value="Passwords" style="ellipse;whiteSpace=wrap;html=1;align=center;" vertex="1" parent="1">
          <mxGeometry x="356.99" y="240" width="100" height="40" as="geometry" />
        </mxCell>
        <mxCell id="KHWw7N-JnxVhbMhuoznx-5" value="Email" style="ellipse;whiteSpace=wrap;html=1;align=center;" vertex="1" parent="1">
          <mxGeometry x="190" y="310" width="100" height="40" as="geometry" />
        </mxCell>
        <mxCell id="KHWw7N-JnxVhbMhuoznx-6" value="Diary" style="whiteSpace=wrap;html=1;align=center;" vertex="1" parent="1">
          <mxGeometry x="357" y="650" width="100" height="40" as="geometry" />
        </mxCell>
        <mxCell id="KHWw7N-JnxVhbMhuoznx-7" value="Feeling" style="ellipse;whiteSpace=wrap;html=1;align=center;" vertex="1" parent="1">
          <mxGeometry x="520" y="610" width="100" height="40" as="geometry" />
        </mxCell>
        <mxCell id="KHWw7N-JnxVhbMhuoznx-8" value="ID" style="ellipse;whiteSpace=wrap;html=1;align=center;fontStyle=4;" vertex="1" parent="1">
          <mxGeometry x="210" y="610" width="100" height="40" as="geometry" />
        </mxCell>
        <mxCell id="KHWw7N-JnxVhbMhuoznx-9" value="Story" style="ellipse;whiteSpace=wrap;html=1;align=center;" vertex="1" parent="1">
          <mxGeometry x="357" y="740" width="100" height="40" as="geometry" />
        </mxCell>
        <mxCell id="KHWw7N-JnxVhbMhuoznx-10" value="ShareStatus" style="ellipse;whiteSpace=wrap;html=1;align=center;" vertex="1" parent="1">
          <mxGeometry x="487" y="730" width="100" height="40" as="geometry" />
        </mxCell>
        <mxCell id="KHWw7N-JnxVhbMhuoznx-11" value="CloseFriend" style="whiteSpace=wrap;html=1;align=center;" vertex="1" parent="1">
          <mxGeometry x="610" y="300" width="100" height="40" as="geometry" />
        </mxCell>
        <mxCell id="KHWw7N-JnxVhbMhuoznx-12" value="Write" style="shape=rhombus;perimeter=rhombusPerimeter;whiteSpace=wrap;html=1;align=center;" vertex="1" parent="1">
          <mxGeometry x="373.37" y="490" width="67.25" height="40" as="geometry" />
        </mxCell>
        <mxCell id="KHWw7N-JnxVhbMhuoznx-13" value="Have" style="shape=rhombus;perimeter=rhombusPerimeter;whiteSpace=wrap;html=1;align=center;" vertex="1" parent="1">
          <mxGeometry x="516" y="340" width="71" height="40" as="geometry" />
        </mxCell>
        <mxCell id="KHWw7N-JnxVhbMhuoznx-14" value="" style="endArrow=none;html=1;rounded=0;exitX=0.5;exitY=0;exitDx=0;exitDy=0;" edge="1" parent="1" source="KHWw7N-JnxVhbMhuoznx-12">
          <mxGeometry relative="1" as="geometry">
            <mxPoint x="406.63" y="510" as="sourcePoint" />
            <mxPoint x="407" y="400" as="targetPoint" />
          </mxGeometry>
        </mxCell>
        <mxCell id="KHWw7N-JnxVhbMhuoznx-15" value="1" style="resizable=0;html=1;whiteSpace=wrap;align=right;verticalAlign=bottom;" connectable="0" vertex="1" parent="KHWw7N-JnxVhbMhuoznx-14">
          <mxGeometry x="1" relative="1" as="geometry">
            <mxPoint y="20" as="offset" />
          </mxGeometry>
        </mxCell>
        <mxCell id="KHWw7N-JnxVhbMhuoznx-16" value="N" style="resizable=0;html=1;whiteSpace=wrap;align=left;verticalAlign=bottom;" connectable="0" vertex="1" parent="1">
          <mxGeometry x="407" y="650" as="geometry" />
        </mxCell>
        <mxCell id="KHWw7N-JnxVhbMhuoznx-17" value="" style="endArrow=none;html=1;rounded=0;exitX=0;exitY=0.5;exitDx=0;exitDy=0;entryX=1;entryY=0.25;entryDx=0;entryDy=0;" edge="1" parent="1" source="KHWw7N-JnxVhbMhuoznx-38" target="KHWw7N-JnxVhbMhuoznx-11">
          <mxGeometry relative="1" as="geometry">
            <mxPoint x="190" y="405" as="sourcePoint" />
            <mxPoint x="30" y="355" as="targetPoint" />
          </mxGeometry>
        </mxCell>
        <mxCell id="KHWw7N-JnxVhbMhuoznx-18" value="" style="endArrow=none;html=1;rounded=0;exitX=0;exitY=0.5;exitDx=0;exitDy=0;entryX=1;entryY=0.5;entryDx=0;entryDy=0;" edge="1" parent="1" source="KHWw7N-JnxVhbMhuoznx-37" target="KHWw7N-JnxVhbMhuoznx-11">
          <mxGeometry relative="1" as="geometry">
            <mxPoint x="70" y="405" as="sourcePoint" />
            <mxPoint x="130" y="365" as="targetPoint" />
          </mxGeometry>
        </mxCell>
        <mxCell id="KHWw7N-JnxVhbMhuoznx-19" value="" style="endArrow=none;html=1;rounded=0;exitX=1;exitY=0.5;exitDx=0;exitDy=0;entryX=0;entryY=0;entryDx=0;entryDy=0;" edge="1" parent="1" source="KHWw7N-JnxVhbMhuoznx-8" target="KHWw7N-JnxVhbMhuoznx-6">
          <mxGeometry relative="1" as="geometry">
            <mxPoint x="240" y="530" as="sourcePoint" />
            <mxPoint x="170" y="480" as="targetPoint" />
          </mxGeometry>
        </mxCell>
        <mxCell id="KHWw7N-JnxVhbMhuoznx-20" value="" style="endArrow=none;html=1;rounded=0;exitX=1;exitY=0;exitDx=0;exitDy=0;entryX=0;entryY=0.5;entryDx=0;entryDy=0;exitPerimeter=0;" edge="1" parent="1" source="KHWw7N-JnxVhbMhuoznx-6" target="KHWw7N-JnxVhbMhuoznx-7">
          <mxGeometry relative="1" as="geometry">
            <mxPoint x="307" y="680" as="sourcePoint" />
            <mxPoint x="367" y="680" as="targetPoint" />
          </mxGeometry>
        </mxCell>
        <mxCell id="KHWw7N-JnxVhbMhuoznx-21" value="" style="endArrow=none;html=1;rounded=0;exitX=1;exitY=1;exitDx=0;exitDy=0;entryX=0.578;entryY=0.028;entryDx=0;entryDy=0;entryPerimeter=0;" edge="1" parent="1" source="KHWw7N-JnxVhbMhuoznx-6" target="KHWw7N-JnxVhbMhuoznx-10">
          <mxGeometry relative="1" as="geometry">
            <mxPoint x="467" y="680" as="sourcePoint" />
            <mxPoint x="531" y="680" as="targetPoint" />
          </mxGeometry>
        </mxCell>
        <mxCell id="KHWw7N-JnxVhbMhuoznx-22" value="" style="endArrow=none;html=1;rounded=0;exitX=0;exitY=1;exitDx=0;exitDy=0;entryX=1;entryY=0;entryDx=0;entryDy=0;" edge="1" parent="1" source="KHWw7N-JnxVhbMhuoznx-6" target="KHWw7N-JnxVhbMhuoznx-35">
          <mxGeometry relative="1" as="geometry">
            <mxPoint x="467" y="700" as="sourcePoint" />
            <mxPoint x="284" y="730" as="targetPoint" />
          </mxGeometry>
        </mxCell>
        <mxCell id="KHWw7N-JnxVhbMhuoznx-23" value="" style="endArrow=none;html=1;rounded=0;exitX=0.5;exitY=1;exitDx=0;exitDy=0;entryX=0.5;entryY=0;entryDx=0;entryDy=0;" edge="1" parent="1" source="KHWw7N-JnxVhbMhuoznx-6" target="KHWw7N-JnxVhbMhuoznx-9">
          <mxGeometry relative="1" as="geometry">
            <mxPoint x="467" y="700" as="sourcePoint" />
            <mxPoint x="555" y="741" as="targetPoint" />
          </mxGeometry>
        </mxCell>
        <mxCell id="KHWw7N-JnxVhbMhuoznx-24" value="" style="endArrow=none;html=1;rounded=0;entryX=0;entryY=0.5;entryDx=0;entryDy=0;exitX=1;exitY=0.5;exitDx=0;exitDy=0;" edge="1" parent="1" source="KHWw7N-JnxVhbMhuoznx-1" target="KHWw7N-JnxVhbMhuoznx-2">
          <mxGeometry relative="1" as="geometry">
            <mxPoint x="170" y="180" as="sourcePoint" />
            <mxPoint x="227" y="180" as="targetPoint" />
          </mxGeometry>
        </mxCell>
        <mxCell id="KHWw7N-JnxVhbMhuoznx-25" value="" style="endArrow=none;html=1;rounded=0;entryX=0;entryY=0;entryDx=0;entryDy=0;exitX=0.5;exitY=1;exitDx=0;exitDy=0;" edge="1" parent="1" source="KHWw7N-JnxVhbMhuoznx-5" target="KHWw7N-JnxVhbMhuoznx-2">
          <mxGeometry relative="1" as="geometry">
            <mxPoint x="307" y="390" as="sourcePoint" />
            <mxPoint x="367" y="390" as="targetPoint" />
          </mxGeometry>
        </mxCell>
        <mxCell id="KHWw7N-JnxVhbMhuoznx-26" value="" style="endArrow=none;html=1;rounded=0;entryX=0.25;entryY=0;entryDx=0;entryDy=0;exitX=0.5;exitY=1;exitDx=0;exitDy=0;" edge="1" parent="1" source="KHWw7N-JnxVhbMhuoznx-3" target="KHWw7N-JnxVhbMhuoznx-2">
          <mxGeometry relative="1" as="geometry">
            <mxPoint x="294" y="350" as="sourcePoint" />
            <mxPoint x="367" y="370" as="targetPoint" />
          </mxGeometry>
        </mxCell>
        <mxCell id="KHWw7N-JnxVhbMhuoznx-27" value="" style="endArrow=none;html=1;rounded=0;entryX=0.5;entryY=0;entryDx=0;entryDy=0;exitX=0.5;exitY=1;exitDx=0;exitDy=0;" edge="1" parent="1" source="KHWw7N-JnxVhbMhuoznx-4" target="KHWw7N-JnxVhbMhuoznx-2">
          <mxGeometry relative="1" as="geometry">
            <mxPoint x="304" y="360" as="sourcePoint" />
            <mxPoint x="377" y="380" as="targetPoint" />
          </mxGeometry>
        </mxCell>
        <mxCell id="KHWw7N-JnxVhbMhuoznx-28" value="" style="endArrow=none;html=1;rounded=0;exitX=0.5;exitY=0;exitDx=0;exitDy=0;entryX=0.5;entryY=1;entryDx=0;entryDy=0;" edge="1" parent="1" source="KHWw7N-JnxVhbMhuoznx-6" target="KHWw7N-JnxVhbMhuoznx-12">
          <mxGeometry relative="1" as="geometry">
            <mxPoint x="417" y="500" as="sourcePoint" />
            <mxPoint x="410" y="550" as="targetPoint" />
          </mxGeometry>
        </mxCell>
        <mxCell id="KHWw7N-JnxVhbMhuoznx-29" value="Share" style="shape=rhombus;perimeter=rhombusPerimeter;whiteSpace=wrap;html=1;align=center;" vertex="1" parent="1">
          <mxGeometry x="510" y="490" width="120" height="60" as="geometry" />
        </mxCell>
        <mxCell id="KHWw7N-JnxVhbMhuoznx-30" value="" style="endArrow=none;html=1;rounded=0;exitX=0;exitY=0;exitDx=0;exitDy=0;entryX=0.75;entryY=1;entryDx=0;entryDy=0;" edge="1" parent="1" source="KHWw7N-JnxVhbMhuoznx-29" target="KHWw7N-JnxVhbMhuoznx-2">
          <mxGeometry relative="1" as="geometry">
            <mxPoint x="417" y="500" as="sourcePoint" />
            <mxPoint x="417" y="410" as="targetPoint" />
          </mxGeometry>
        </mxCell>
        <mxCell id="KHWw7N-JnxVhbMhuoznx-31" value="M" style="resizable=0;html=1;whiteSpace=wrap;align=right;verticalAlign=bottom;" connectable="0" vertex="1" parent="KHWw7N-JnxVhbMhuoznx-30">
          <mxGeometry x="1" relative="1" as="geometry">
            <mxPoint y="20" as="offset" />
          </mxGeometry>
        </mxCell>
        <mxCell id="KHWw7N-JnxVhbMhuoznx-32" value="" style="endArrow=none;html=1;rounded=0;exitX=0;exitY=1;exitDx=0;exitDy=0;entryX=0.75;entryY=0;entryDx=0;entryDy=0;" edge="1" parent="1" source="KHWw7N-JnxVhbMhuoznx-29" target="KHWw7N-JnxVhbMhuoznx-6">
          <mxGeometry relative="1" as="geometry">
            <mxPoint x="550" y="515" as="sourcePoint" />
            <mxPoint x="442" y="410" as="targetPoint" />
          </mxGeometry>
        </mxCell>
        <mxCell id="KHWw7N-JnxVhbMhuoznx-33" value="N" style="resizable=0;html=1;whiteSpace=wrap;align=right;verticalAlign=bottom;" connectable="0" vertex="1" parent="KHWw7N-JnxVhbMhuoznx-32">
          <mxGeometry x="1" relative="1" as="geometry">
            <mxPoint x="25" as="offset" />
          </mxGeometry>
        </mxCell>
        <mxCell id="KHWw7N-JnxVhbMhuoznx-34" value="" style="endArrow=none;html=1;rounded=0;exitX=1;exitY=0.5;exitDx=0;exitDy=0;entryX=0;entryY=0.5;entryDx=0;entryDy=0;" edge="1" parent="1" target="KHWw7N-JnxVhbMhuoznx-6">
          <mxGeometry relative="1" as="geometry">
            <mxPoint x="284" y="690" as="sourcePoint" />
            <mxPoint x="367" y="680" as="targetPoint" />
          </mxGeometry>
        </mxCell>
        <mxCell id="KHWw7N-JnxVhbMhuoznx-35" value="Date_and_Time" style="ellipse;whiteSpace=wrap;html=1;align=center;" vertex="1" parent="1">
          <mxGeometry x="234" y="720" width="100" height="40" as="geometry" />
        </mxCell>
        <mxCell id="KHWw7N-JnxVhbMhuoznx-36" value="" style="endArrow=none;html=1;rounded=0;exitX=1;exitY=0.5;exitDx=0;exitDy=0;entryX=0;entryY=0.5;entryDx=0;entryDy=0;" edge="1" parent="1" source="KHWw7N-JnxVhbMhuoznx-6" target="KHWw7N-JnxVhbMhuoznx-40">
          <mxGeometry relative="1" as="geometry">
            <mxPoint x="467" y="660" as="sourcePoint" />
            <mxPoint x="529.9999999999998" y="690" as="targetPoint" />
          </mxGeometry>
        </mxCell>
        <mxCell id="KHWw7N-JnxVhbMhuoznx-37" value="FriendID" style="ellipse;whiteSpace=wrap;html=1;align=center;fontStyle=4;" vertex="1" parent="1">
          <mxGeometry x="760" y="300" width="100" height="40" as="geometry" />
        </mxCell>
        <mxCell id="KHWw7N-JnxVhbMhuoznx-38" value="UserID" style="ellipse;whiteSpace=wrap;html=1;align=center;fontStyle=4;" vertex="1" parent="1">
          <mxGeometry x="760" y="230" width="100" height="40" as="geometry" />
        </mxCell>
        <mxCell id="KHWw7N-JnxVhbMhuoznx-39" value="&lt;span style=&quot;border-bottom: 1px dotted&quot;&gt;UserID&lt;/span&gt;" style="ellipse;whiteSpace=wrap;html=1;align=center;" vertex="1" parent="1">
          <mxGeometry x="184" y="670" width="100" height="40" as="geometry" />
        </mxCell>
        <mxCell id="KHWw7N-JnxVhbMhuoznx-40" value="AIFeeling" style="ellipse;whiteSpace=wrap;html=1;align=center;" vertex="1" parent="1">
          <mxGeometry x="530" y="670" width="100" height="40" as="geometry" />
        </mxCell>
        <mxCell id="KHWw7N-JnxVhbMhuoznx-41" value="Do" style="shape=rhombus;perimeter=rhombusPerimeter;whiteSpace=wrap;html=1;align=center;" vertex="1" parent="1">
          <mxGeometry x="590" y="210" width="80" height="40" as="geometry" />
        </mxCell>
        <mxCell id="KHWw7N-JnxVhbMhuoznx-42" value="" style="endArrow=none;html=1;rounded=0;entryX=1;entryY=0;entryDx=0;entryDy=0;exitX=0;exitY=0.5;exitDx=0;exitDy=0;" edge="1" parent="1" source="KHWw7N-JnxVhbMhuoznx-41" target="KHWw7N-JnxVhbMhuoznx-2">
          <mxGeometry relative="1" as="geometry">
            <mxPoint x="270" y="370" as="sourcePoint" />
            <mxPoint x="430" y="370" as="targetPoint" />
          </mxGeometry>
        </mxCell>
        <mxCell id="KHWw7N-JnxVhbMhuoznx-43" value="1" style="resizable=0;html=1;whiteSpace=wrap;align=right;verticalAlign=bottom;" connectable="0" vertex="1" parent="KHWw7N-JnxVhbMhuoznx-42">
          <mxGeometry x="1" relative="1" as="geometry" />
        </mxCell>
        <mxCell id="KHWw7N-JnxVhbMhuoznx-44" value="questionnaire" style="whiteSpace=wrap;html=1;align=center;" vertex="1" parent="1">
          <mxGeometry x="643.62" y="100" width="100" height="40" as="geometry" />
        </mxCell>
        <mxCell id="KHWw7N-JnxVhbMhuoznx-45" value="" style="endArrow=none;html=1;rounded=0;exitX=1;exitY=0.5;exitDx=0;exitDy=0;entryX=0.5;entryY=1;entryDx=0;entryDy=0;" edge="1" parent="1" source="KHWw7N-JnxVhbMhuoznx-41" target="KHWw7N-JnxVhbMhuoznx-44">
          <mxGeometry relative="1" as="geometry">
            <mxPoint x="587" y="325" as="sourcePoint" />
            <mxPoint x="747" y="325" as="targetPoint" />
          </mxGeometry>
        </mxCell>
        <mxCell id="KHWw7N-JnxVhbMhuoznx-46" value="N" style="resizable=0;html=1;whiteSpace=wrap;align=right;verticalAlign=bottom;" connectable="0" vertex="1" parent="KHWw7N-JnxVhbMhuoznx-45">
          <mxGeometry x="1" relative="1" as="geometry">
            <mxPoint x="-10" y="20" as="offset" />
          </mxGeometry>
        </mxCell>
        <mxCell id="KHWw7N-JnxVhbMhuoznx-47" value="Date_and_Time" style="ellipse;whiteSpace=wrap;html=1;align=center;" vertex="1" parent="1">
          <mxGeometry x="643.62" width="100" height="40" as="geometry" />
        </mxCell>
        <mxCell id="KHWw7N-JnxVhbMhuoznx-48" value="&lt;span data-teams=&quot;true&quot;&gt;Q2test_score&lt;/span&gt;" style="ellipse;whiteSpace=wrap;html=1;align=center;" vertex="1" parent="1">
          <mxGeometry x="733" y="30" width="100" height="40" as="geometry" />
        </mxCell>
        <mxCell id="KHWw7N-JnxVhbMhuoznx-49" value="" style="endArrow=none;html=1;rounded=0;exitX=1;exitY=0.5;exitDx=0;exitDy=0;entryX=0;entryY=0.5;entryDx=0;entryDy=0;" edge="1" parent="1" source="KHWw7N-JnxVhbMhuoznx-58" target="KHWw7N-JnxVhbMhuoznx-44">
          <mxGeometry relative="1" as="geometry">
            <mxPoint x="610" y="120" as="sourcePoint" />
            <mxPoint x="533" y="190" as="targetPoint" />
          </mxGeometry>
        </mxCell>
        <mxCell id="KHWw7N-JnxVhbMhuoznx-50" value="" style="endArrow=none;html=1;rounded=0;exitX=1;exitY=1;exitDx=0;exitDy=0;entryX=0.25;entryY=0;entryDx=0;entryDy=0;" edge="1" parent="1" source="KHWw7N-JnxVhbMhuoznx-57" target="KHWw7N-JnxVhbMhuoznx-44">
          <mxGeometry relative="1" as="geometry">
            <mxPoint x="620" y="130" as="sourcePoint" />
            <mxPoint x="654" y="130" as="targetPoint" />
          </mxGeometry>
        </mxCell>
        <mxCell id="KHWw7N-JnxVhbMhuoznx-51" value="" style="endArrow=none;html=1;rounded=0;exitX=0.5;exitY=1;exitDx=0;exitDy=0;entryX=0.75;entryY=0;entryDx=0;entryDy=0;" edge="1" parent="1" source="KHWw7N-JnxVhbMhuoznx-48" target="KHWw7N-JnxVhbMhuoznx-44">
          <mxGeometry relative="1" as="geometry">
            <mxPoint x="623" y="80" as="sourcePoint" />
            <mxPoint x="679" y="110" as="targetPoint" />
          </mxGeometry>
        </mxCell>
        <mxCell id="KHWw7N-JnxVhbMhuoznx-52" value="&lt;span data-teams=&quot;true&quot;&gt;Q9test_score&lt;/span&gt;" style="ellipse;whiteSpace=wrap;html=1;align=center;" vertex="1" parent="1">
          <mxGeometry x="770" y="100" width="100" height="40" as="geometry" />
        </mxCell>
        <mxCell id="KHWw7N-JnxVhbMhuoznx-53" value="&lt;span data-teams=&quot;true&quot;&gt;Q8test_score&lt;/span&gt;" style="ellipse;whiteSpace=wrap;html=1;align=center;" vertex="1" parent="1">
          <mxGeometry x="733" y="160" width="100" height="40" as="geometry" />
        </mxCell>
        <mxCell id="KHWw7N-JnxVhbMhuoznx-54" value="" style="endArrow=none;html=1;rounded=0;exitX=0;exitY=0.5;exitDx=0;exitDy=0;entryX=1;entryY=0.5;entryDx=0;entryDy=0;" edge="1" parent="1" source="KHWw7N-JnxVhbMhuoznx-52" target="KHWw7N-JnxVhbMhuoznx-44">
          <mxGeometry relative="1" as="geometry">
            <mxPoint x="783" y="80" as="sourcePoint" />
            <mxPoint x="729" y="110" as="targetPoint" />
          </mxGeometry>
        </mxCell>
        <mxCell id="KHWw7N-JnxVhbMhuoznx-55" value="" style="endArrow=none;html=1;rounded=0;exitX=0;exitY=0;exitDx=0;exitDy=0;entryX=0.75;entryY=1;entryDx=0;entryDy=0;" edge="1" parent="1" source="KHWw7N-JnxVhbMhuoznx-53" target="KHWw7N-JnxVhbMhuoznx-44">
          <mxGeometry relative="1" as="geometry">
            <mxPoint x="677" y="210" as="sourcePoint" />
            <mxPoint x="651" y="210" as="targetPoint" />
          </mxGeometry>
        </mxCell>
        <mxCell id="KHWw7N-JnxVhbMhuoznx-56" value="" style="endArrow=none;html=1;rounded=0;exitX=0.5;exitY=1;exitDx=0;exitDy=0;entryX=0.5;entryY=0;entryDx=0;entryDy=0;" edge="1" parent="1" source="KHWw7N-JnxVhbMhuoznx-47" target="KHWw7N-JnxVhbMhuoznx-44">
          <mxGeometry relative="1" as="geometry">
            <mxPoint x="793" y="80" as="sourcePoint" />
            <mxPoint x="729" y="110" as="targetPoint" />
          </mxGeometry>
        </mxCell>
        <mxCell id="KHWw7N-JnxVhbMhuoznx-57" value="&lt;span style=&quot;border-bottom: 1px dotted&quot;&gt;UserID&lt;/span&gt;" style="ellipse;whiteSpace=wrap;html=1;align=center;" vertex="1" parent="1">
          <mxGeometry x="543" y="30" width="100" height="40" as="geometry" />
        </mxCell>
        <mxCell id="KHWw7N-JnxVhbMhuoznx-58" value="ID" style="ellipse;whiteSpace=wrap;html=1;align=center;fontStyle=4;" vertex="1" parent="1">
          <mxGeometry x="510" y="100" width="100" height="40" as="geometry" />
        </mxCell>
        <mxCell id="KHWw7N-JnxVhbMhuoznx-59" value="" style="endArrow=none;html=1;rounded=0;exitX=1;exitY=0.5;exitDx=0;exitDy=0;entryX=0;entryY=0.5;entryDx=0;entryDy=0;" edge="1" parent="1" source="KHWw7N-JnxVhbMhuoznx-13" target="KHWw7N-JnxVhbMhuoznx-11">
          <mxGeometry relative="1" as="geometry">
            <mxPoint x="830" y="350" as="sourcePoint" />
            <mxPoint x="770" y="330" as="targetPoint" />
          </mxGeometry>
        </mxCell>
        <mxCell id="KHWw7N-JnxVhbMhuoznx-60" value="" style="endArrow=none;html=1;rounded=0;exitX=1;exitY=0.5;exitDx=0;exitDy=0;entryX=0;entryY=0.5;entryDx=0;entryDy=0;" edge="1" parent="1" source="KHWw7N-JnxVhbMhuoznx-2" target="KHWw7N-JnxVhbMhuoznx-13">
          <mxGeometry relative="1" as="geometry">
            <mxPoint x="583" y="370" as="sourcePoint" />
            <mxPoint x="670" y="320" as="targetPoint" />
          </mxGeometry>
        </mxCell>
        <mxCell id="KHWw7N-JnxVhbMhuoznx-61" value="" style="endArrow=none;html=1;rounded=0;exitX=0.5;exitY=0;exitDx=0;exitDy=0;entryX=0.5;entryY=1;entryDx=0;entryDy=0;" edge="1" parent="1" source="KHWw7N-JnxVhbMhuoznx-29" target="KHWw7N-JnxVhbMhuoznx-11">
          <mxGeometry relative="1" as="geometry">
            <mxPoint x="593" y="380" as="sourcePoint" />
            <mxPoint x="680" y="330" as="targetPoint" />
          </mxGeometry>
        </mxCell>
        <mxCell id="KHWw7N-JnxVhbMhuoznx-62" value="N" style="resizable=0;html=1;whiteSpace=wrap;align=right;verticalAlign=bottom;" connectable="0" vertex="1" parent="1">
          <mxGeometry x="669.9973999139501" y="360.00313898051587" as="geometry" />
        </mxCell>
        <mxCell id="KHWw7N-JnxVhbMhuoznx-63" value="N" style="resizable=0;html=1;whiteSpace=wrap;align=right;verticalAlign=bottom;" connectable="0" vertex="1" parent="1">
          <mxGeometry x="609.9973999139501" y="325.00313898051587" as="geometry" />
        </mxCell>
        <mxCell id="KHWw7N-JnxVhbMhuoznx-64" value="M" style="resizable=0;html=1;whiteSpace=wrap;align=right;verticalAlign=bottom;" connectable="0" vertex="1" parent="1">
          <mxGeometry x="471.0032664121567" y="379.99734234515233" as="geometry" />
        </mxCell>
        <mxCell id="KHWw7N-JnxVhbMhuoznx-65" value="Profile" style="ellipse;whiteSpace=wrap;html=1;align=center;" vertex="1" parent="1">
          <mxGeometry x="460" y="230" width="100" height="40" as="geometry" />
        </mxCell>
        <mxCell id="KHWw7N-JnxVhbMhuoznx-66" value="" style="endArrow=none;html=1;rounded=0;entryX=0.75;entryY=0;entryDx=0;entryDy=0;exitX=0.5;exitY=1;exitDx=0;exitDy=0;" edge="1" parent="1" source="KHWw7N-JnxVhbMhuoznx-65" target="KHWw7N-JnxVhbMhuoznx-2">
          <mxGeometry relative="1" as="geometry">
            <mxPoint x="417" y="350" as="sourcePoint" />
            <mxPoint x="410" y="430" as="targetPoint" />
          </mxGeometry>
        </mxCell>
        <mxCell id="KHWw7N-JnxVhbMhuoznx-68" value="" style="endArrow=none;html=1;rounded=0;exitX=0;exitY=0.5;exitDx=0;exitDy=0;entryX=1;entryY=0.75;entryDx=0;entryDy=0;" edge="1" parent="1" source="KHWw7N-JnxVhbMhuoznx-69" target="KHWw7N-JnxVhbMhuoznx-11">
          <mxGeometry relative="1" as="geometry">
            <mxPoint x="759.999999999995" y="380" as="sourcePoint" />
            <mxPoint x="760" y="320" as="targetPoint" />
          </mxGeometry>
        </mxCell>
        <mxCell id="KHWw7N-JnxVhbMhuoznx-69" value="Status" style="ellipse;whiteSpace=wrap;html=1;align=center;" vertex="1" parent="1">
          <mxGeometry x="760" y="360" width="100" height="40" as="geometry" />
        </mxCell>
      </root>
    </mxGraphModel>
  </diagram>
</mxfile>
